<?xml version="1.0" encoding="utf-8"?>
<!-- Generator: Adobe Adobe Illustrator 24.2.0, SVG Export Plug-In . SVG Version: 6.00 Build 0)  -->
<svg version="1.1" id="Layer_1" xmlns="http://www.w3.org/2000/svg" xmlns:xlink="http://www.w3.org/1999/xlink" x="0px" y="0px"
	 width="1728px" height="1296px" viewBox="0 0 1728 1296" style="enable-background:new 0 0 1728 1296;" xml:space="preserve">
<style type="text/css">
	.st0{{fill:currentColor;}}
</style>
<path class="st0" d="M567.84,852.49c-28.16-23.03-43.45-53.12-50.22-87.87c-9.21-47.3-10.7-95.22-10.52-143.23
	c0.01-2.23,0-4.45,0-7.14c-6.33-1.17-12.53-2.32-19.16-3.55c2.36-13.5,4.68-26.81,7.01-40.1c0.44-2.51,0.93-5.02,1.43-7.52
	c1.11-5.46,4.4-8.89,9.91-9.61c2.82-0.37,3.61-1.45,3.89-4.17c2.36-22.24,4.65-44.49,7.44-66.67c5-39.75,16.61-76.94,42.03-108.93
	c25.84-32.52,58.83-55.06,96.79-70.85c34.28-14.26,70.15-22.28,106.88-26.98c38.34-4.91,76.82-6.23,115.38-4.55
	c57.71,2.52,114.94,8.58,170.96,23.74c54.05,14.62,97.02,44.56,128.92,90.56c15.52,22.38,23.24,47.77,29.1,73.9
	c6.56,29.23,9.39,58.97,11.44,88.78c0.21,3.04,0.39,4.88,4.23,5.31c4.85,0.54,8.19,3.97,9.09,8.74c3.02,15.97,5.71,31.99,8.59,48.36
	c-6.36,1.16-12.43,2.26-19.17,3.49c0,1.88,0.04,3.73-0.01,5.58c-1.22,46.04-1.47,92.14-4.07,138.1
	c-1.41,24.91-12.3,47.46-26.78,67.83c-24.08,33.89-57.61,52.11-98.26,57.76c-10.55,1.47-21.32,1.46-32,1.93
	c-5.57,0.24-11.16,0.04-17.04,0.04c11.97,46.81,10.23,93.4,1.82,139.95c-6.52-7.5-12.6-15.28-19.47-22.27
	c-23.76-24.14-50.04-45.35-78.52-63.57c-36.48-23.33-62.25-55.43-80.72-94.01c-0.68-1.43-1.41-2.84-2.27-4.56
	c-3.04,5.95-5.81,11.69-8.86,17.27c-18.06,33.16-42.07,60.68-74.19,81.22c-28.07,17.95-54.02,38.82-77.5,62.56
	c-7.16,7.24-13.54,15.25-20.06,22.66c-3.12-6.36-6.8-40.83-7.1-66.65c-0.26-22.76,1.9-45.25,7.25-68.04
	c-6.14-0.57-11.79-1.07-17.43-1.64c-29.85-2.99-58.57-9.76-84.41-25.79C577.38,859.54,572.81,856.01,567.84,852.49z M573.59,399.67
	c-11.31,16.87-20.33,34.89-23.87,54.97c-4.24,24.04-7.55,48.24-11.02,72.41c-1.06,7.34-1.33,14.8-1.96,22.2
	c16.38-0.97,32.16-2.38,47.96-2.73c36.77-0.8,73.54-1.49,110.31-1.35c13.67,0.05,27.4,2.07,41,3.97c18.8,2.62,36.5,9.32,53.66,17.1
	c33.98,15.39,69.56,16.7,105.73,12.81c17.78-1.91,34.32-8.58,50.59-15.66c23.84-10.38,48.75-16.41,74.66-17.46
	c24.28-0.98,48.61-1.66,72.89-1.15c30.36,0.63,60.7,2.6,91.05,4.02c2.63,0.12,5.25,0.44,8,0.68c0-1.56,0.08-2.51-0.01-3.44
	c-1.64-16.69-3.01-33.42-5.02-50.07c-2.77-22.88-7.66-45.47-15.89-66.91c-15.2-39.58-44.24-67.6-79.99-88.8
	c-25.43-15.08-53.94-22.04-82.64-27.88c-49.02-9.97-98.7-13.89-148.61-15.08c-32.49-0.78-64.88,1.05-97.13,5.34
	c-32.72,4.35-64.71,11.55-95.32,24.13C630.09,342.34,597.45,364.77,573.59,399.67z M732.01,811.5c4.24-2.86,8.31-5.99,12.73-8.53
	c29.68-17.02,62.05-20.61,95.45-18.63c8.75,0.52,17.47,2.18,26.21,2.22c7.61,0.03,15.22-1.8,22.86-2.26
	c28.06-1.71,55.57,0.79,81.74,11.97c27.65,11.82,47.44,31.88,61.04,58.44c0.84,1.64,2.95,3.76,4.47,3.76
	c16.3,0,32.76,1.02,48.86-0.9c51.96-6.2,86.03-34.87,102.49-84.61c4.3-13,4.42-26.4,5-39.79c0.93-21.86,1.71-43.74,2.56-65.6
	c-1.91,3.92-3.09,7.98-4.39,12c-6.52,20.19-19.11,36.67-32.16,52.92c-6.03,7.51-13.05,13.65-21.55,17.96
	c-6.67,3.39-13.47,6.64-20.49,9.22c-26.83,9.87-54.77,13.73-83.2,14.13c-18.08,0.25-36.17-0.73-53.82-5
	c-28.68-6.94-49.07-25.06-64.68-49.27c-12.68-19.67-20.16-41.53-27.07-63.68c-1.53-4.9-4.11-9.82-7.39-13.75
	c-8.11-9.72-19.56-10.62-29.35-2.98c-5.37,4.19-8.17,9.99-10.42,16.29c-5.52,15.46-10.6,31.13-17.22,46.12
	c-8.63,19.51-21.15,36.44-38.14,49.75c-17.79,13.93-38.42,19.33-60.52,21.26c-35.76,3.13-70.84,0.24-105.23-10.17
	c-23.21-7.03-42.93-18.67-57.3-39.24c-10.88-15.58-21.16-31.14-26.43-49.57c-0.19-0.66-0.55-1.28-0.84-1.91
	c-0.42,8.13-0.38,16.11,0.55,24c2.68,22.66,4.39,45.55,8.92,67.86c8.73,42.93,33.77,72.98,75.49,88.14
	c21.85,7.94,44.68,10.46,67.69,11.95c3.74,0.24,5.59-0.71,7.17-4.26C703.34,840.63,715.28,824.61,732.01,811.5z M1040.25,582.07
	c-18.18,2.44-36.53,4.04-54.5,7.59c-13.03,2.57-25.63,7.49-38.28,11.79c-8.09,2.75-10.97,9.09-10.2,17.41
	c0.66,7.16,0.93,14.36,1.64,21.51c4,40.36,25.05,68.57,61.75,85.01c20.16,9.03,41.63,9.25,63.12,6.43
	c23.39-3.07,44.62-11.49,61.55-28.37c28.41-28.33,35.05-62.91,28.2-101.26c-1.33-7.45-5.18-10.9-12.32-12.42
	C1108.19,582.69,1074.9,579.67,1040.25,582.07z M673.8,732.86c5.6,0.09,11.2,0.38,16.79,0.23c32.65-0.89,59.08-13.96,79.37-39.82
	c19.02-24.23,22.15-52.4,21.07-81.63c-0.09-2.58-2.71-6.11-5.12-7.38c-7-3.71-14.27-7.21-21.83-9.51
	c-27.51-8.37-55.84-12.06-84.5-13.22c-31.78-1.29-63.2,1.64-94.21,8.89c-5.54,1.3-8.34,4.49-9.5,9.97
	c-3.03,14.38-3.84,28.81-1.82,43.37c3.95,28.44,16.94,51.64,40.29,68.68C631.78,725.13,651.76,730.7,673.8,732.86z M534.21,669.48
	c0.11-0.04,0.29-0.06,0.32-0.14c0.05-0.13,0.04-0.31-0.02-0.45c-0.04-0.11-0.18-0.18-0.28-0.27
	C534.21,668.78,534.2,668.93,534.21,669.48z"/>
<path class="st0" d="M1231.06,690.77c0.77-22.33,1.5-44.21,2.26-66.58c4.96-0.79,10.27-1.84,15.63-2.34
	c1.09-0.1,3.13,1.69,3.45,2.94c2.1,7.98,4.74,15.97,5.54,24.12c2.86,29.23-3.16,56.55-19.71,81.12c-3.08,4.57-7.08,8.52-11.35,13.58
	C1228.33,725.3,1229.68,708.26,1231.06,690.77z"/>
<path class="st0" d="M496.99,689.96c1.4,17.75,2.77,35.05,4.27,53.97c-5-6.26-9.84-11.17-13.36-16.9
	c-17.8-29-22.45-60.37-15.34-93.46c2.65-12.35,3.6-12.62,15.82-10.43c2.18,0.39,4.38,0.72,6.49,1.07
	C495.57,646.17,496.26,667.84,496.99,689.96z"/>
<path class="st0" d="M1107.25,480.13c-18.24-19.38-39.23-33.75-65.07-40.01c-29.37-7.11-57.01-1.37-83.5,11.99
	c-16.66,8.41-31.59,19.33-45.61,31.56c-1.18,1.03-2.36,2.05-4.22,2.66c1.72-4.24,3.32-8.53,5.18-12.7
	c11.9-26.67,26.86-51.25,49.16-70.65c18.12-15.77,38.93-24.89,63.35-24.18c5.34,0.15,10.65,1.11,15.41,1.63
	c-8.36,4.09-16.9,8.27-25.44,12.43c-0.72,0.35-1.51,0.58-1.82,1.39c26.78-2.18,53.09-6.12,80.34,2.18
	c-12.43,2.93-23.69,5.59-34.95,8.24c0.07,0.41,0.13,0.82,0.2,1.23c34.55,7.83,48.26,33.47,55.18,64.72
	c1.58,7.14,2.26,14.48,2.54,22.11C1114.5,488.62,1110.99,484.5,1107.25,480.13z"/>
<path class="st0" d="M629.25,434.71c10.1-15.35,23.42-25.45,41.57-28.5c0.08-0.48,0.17-0.96,0.25-1.44
	c-11.29-2.69-22.57-5.38-35.01-8.35c27.13-8.31,53.48-4.34,80.89-1.44c-8.96-7.52-18.88-10.46-29.36-14
	c25.13-5.39,47.63-0.91,68.02,12.87c33.36,22.54,51.74,56.01,65.76,92.7c-2.44-2.05-4.87-4.1-7.32-6.14
	c-2.46-2.04-4.89-4.12-7.41-6.09c-20.06-15.7-41.68-28.47-66.79-34.2c-37.42-8.54-70.61,1.04-99.8,24.97
	c-9.82,8.04-18.31,17.69-27.44,26.63C614.1,472.04,618.26,452.61,629.25,434.71z"/>
<path class="st0" d="M881.98,756.3c4.6,2.52,8.91,4.85,13.81,7.5c-11.16,3.83-22.4,5.67-30.27,14.26
	c-7.91-8.45-18.94-10.46-29.89-14.05c1.14-0.8,2-1.54,2.97-2.07c7.7-4.2,15.49-8.24,23.09-12.61c2.85-1.64,5.09-1.5,7.81,0.15
	C873.45,751.88,877.61,753.92,881.98,756.3z"/>
</svg>
